<svg xmlns="http://www.w3.org/2000/svg" xmlns:xlink="http://www.w3.org/1999/xlink" viewBox="0 0 172 215" version="1.1" x="0px" y="0px"><title>Artboard</title><g stroke="none" stroke-width="1" fill="none" fill-rule="evenodd"><path d="M133,28 L81,28 C71.6111593,28 64,35.6111593 64,45 L64,80 C64,89.3888407 71.6111593,97 81,97 L133,97 C142.388841,97 150,89.3888407 150,80 L150,45 C150,35.6111593 142.388841,28 133,28 Z M81,38 L133,38 C136.865993,38 140,41.1340068 140,45 L140,80 C140,83.8659932 136.865993,87 133,87 L81,87 C77.1340068,87 74,83.8659932 74,80 L74,45 C74,41.1340068 77.1340068,38 81,38 Z" fill="#000000" fill-rule="nonzero"/><path d="M68,51 L68,61 L63,61 C59.2145483,61 56.1309013,64.0047834 56.004059,67.7593502 L56,68 L56,103 C56,106.785452 59.0047834,109.869099 62.7593502,109.995941 L63,110 L115,110 C118.785452,110 121.869099,106.995217 121.995941,103.24065 L122,103 L122,93 L132,93 L132,103 C132,112.280923 124.562804,119.824796 115.32304,119.996992 L115,120 L63,120 C53.719077,120 46.175204,112.562804 46.0030079,103.32304 L46,103 L46,68 C46,58.719077 53.4371956,51.175204 62.6769603,51.0030079 L63,51 L68,51 Z" fill="#000000" fill-rule="nonzero"/><path d="M49,74 L49,84 L39,84 C35.2145483,84 32.1309013,87.0047834 32.004059,90.7593502 L32,91 L32,126 C32,129.785452 35.0047834,132.869099 38.7593502,132.995941 L39,133 L91,133 C94.7854517,133 97.8690987,129.995217 97.995941,126.24065 L98,126 L98,116 L108,116 L108,126 C108,135.280923 100.562804,142.824796 91.3230397,142.996992 L91,143 L39,143 C29.719077,143 22.175204,135.562804 22.0030079,126.32304 L22,126 L22,91 C22,81.719077 29.4371956,74.175204 38.6769603,74.0030079 L39,74 L49,74 Z" fill="#000000" fill-rule="nonzero"/><path d="M121.235109,47.1094326 C122.831526,45.5824257 125.363561,45.6386931 126.890567,47.2351094 C128.366674,48.7783118 128.363299,51.1957978 126.919397,52.7345885 L126.764891,52.8905674 L103.764891,74.8905674 C102.247684,76.3418085 99.8794307,76.3661218 98.3339369,74.982103 L98.1715729,74.8284271 L88.1715729,64.8284271 C86.6094757,63.26633 86.6094757,60.73367 88.1715729,59.1715729 C89.6816001,57.6615456 92.0985644,57.6112114 93.6690541,59.0205701 L93.8284271,59.1715729 L101.062,66.405 L121.235109,47.1094326 Z" fill="#000000" fill-rule="nonzero"/></g></svg>